HIERARCHY
ROOT Hips
{
	OFFSET 0.00000 0.00000 0.00000
	CHANNELS 6 Xposition Yposition Zposition Zrotation Yrotation Xrotation 
	JOINT LHipJoint
	{
		OFFSET 0 0 0
		CHANNELS 3 Zrotation Yrotation Xrotation
		JOINT LeftUpLeg
		{
			OFFSET 1.36337 -1.57426 1.11036
			CHANNELS 3 Zrotation Yrotation Xrotation
			JOINT LeftLeg
			{
				OFFSET 2.38468 -6.55187 0.00000
				CHANNELS 3 Zrotation Yrotation Xrotation
				JOINT LeftFoot
				{
					OFFSET 2.37166 -6.51609 0.00000
					CHANNELS 3 Zrotation Yrotation Xrotation
					JOINT LeftToeBase
					{
						OFFSET 0.29078 -0.79891 2.01393
						CHANNELS 3 Zrotation Yrotation Xrotation
						End Site
						{
							OFFSET 0.00000 -0.00000 1.07924
						}
					}
				}
			}
		}
	}
	JOINT RHipJoint
	{
		OFFSET 0 0 0
		CHANNELS 3 Zrotation Yrotation Xrotation
		JOINT RightUpLeg
		{
			OFFSET -1.36349 -1.57426 1.11036
			CHANNELS 3 Zrotation Yrotation Xrotation
			JOINT RightLeg
			{
				OFFSET -2.29562 -6.30717 0.00000
				CHANNELS 3 Zrotation Yrotation Xrotation
				JOINT RightFoot
				{
					OFFSET -2.40985 -6.62100 0.00000
					CHANNELS 3 Zrotation Yrotation Xrotation
					JOINT RightToeBase
					{
						OFFSET -0.23197 -0.63733 1.92232
						CHANNELS 3 Zrotation Yrotation Xrotation
						End Site
						{
							OFFSET -0.00000 -0.00000 1.01562
						}
					}
				}
			}
		}
	}
	JOINT LowerBack
	{
		OFFSET 0 0 0
		CHANNELS 3 Zrotation Yrotation Xrotation
		JOINT Spine
		{
			OFFSET -0.08565 2.03602 -0.24562
			CHANNELS 3 Zrotation Yrotation Xrotation
			JOINT Spine1
			{
				OFFSET -0.00036 2.05693 0.00216
				CHANNELS 3 Zrotation Yrotation Xrotation
				JOINT Neck
				{
					OFFSET 0 0 0
					CHANNELS 3 Zrotation Yrotation Xrotation
					JOINT Neck1
					{
						OFFSET -0.03664 1.69515 0.31789
						CHANNELS 3 Zrotation Yrotation Xrotation
						JOINT Head
						{
							OFFSET 0.00932 1.70181 -0.46013
							CHANNELS 3 Zrotation Yrotation Xrotation
							End Site
							{
								OFFSET 0.01243 1.77620 -0.19377
							}
						}
					}
				}
				JOINT LeftShoulder
				{
					OFFSET 0 0 0
					CHANNELS 3 Zrotation Yrotation Xrotation
					JOINT LeftArm
					{
						OFFSET 3.74344 0.81315 -0.36647
						CHANNELS 3 Zrotation Yrotation Xrotation
						JOINT LeftForeArm
						{
							OFFSET 4.97185 -0.00000 -0.00000
							CHANNELS 3 Zrotation Yrotation Xrotation
							JOINT LeftHand
							{
								OFFSET 3.35811 -0.00000 0.00000
								CHANNELS 3 Zrotation Yrotation Xrotation
								JOINT LeftFingerBase
								{
									OFFSET 0 0 0
									CHANNELS 3 Zrotation Yrotation Xrotation
									JOINT LeftHandIndex1
									{
										OFFSET 0.62278 -0.00000 0.00000
										CHANNELS 3 Zrotation Yrotation Xrotation
										End Site
										{
											OFFSET 0.50210 -0.00000 0.00000
										}
									}
								}
								JOINT LThumb
								{
									OFFSET 0 0 0
									CHANNELS 3 Zrotation Yrotation Xrotation
									End Site
									{
										OFFSET 0.50976 -0.00000 0.50976
									}
								}
							}
						}
					}
				}
				JOINT RightShoulder
				{
					OFFSET 0 0 0
					CHANNELS 3 Zrotation Yrotation Xrotation
					JOINT RightArm
					{
						OFFSET -3.75385 0.50666 -0.06525
						CHANNELS 3 Zrotation Yrotation Xrotation
						JOINT RightForeArm
						{
							OFFSET -4.96493 -0.00000 -0.00000
							CHANNELS 3 Zrotation Yrotation Xrotation
							JOINT RightHand
							{
								OFFSET -3.34929 -0.00000 0.00000
								CHANNELS 3 Zrotation Yrotation Xrotation
								JOINT RightFingerBase
								{
									OFFSET 0 0 0
									CHANNELS 3 Zrotation Yrotation Xrotation
									JOINT RightHandIndex1
									{
										OFFSET -0.63804 -0.00000 0.00000
										CHANNELS 3 Zrotation Yrotation Xrotation
										End Site
										{
											OFFSET -0.51441 -0.00000 0.00000
										}
									}
								}
								JOINT RThumb
								{
									OFFSET 0 0 0
									CHANNELS 3 Zrotation Yrotation Xrotation
									End Site
									{
										OFFSET -0.52226 -0.00000 0.52226
									}
								}
							}
						}
					}
				}
			}
		}
	}
}
MOTION
Frames: 6
Frame Time: .0083333
-17.2746 8.4779 -0.4199 353.3890 84.0931 389.0520 0.0000 0.0000 0.0000 0.7385 21.9832 -63.8430 32.9961 15.3351 131.1111 1.7942 7.5358 24.0224 0.6871 5.2996 14.7651 0.0000 0.0000 0.0000 -7.3779 -17.3840 -41.5196 -27.0714 -18.7562 111.0963 -1.0372 -8.6626 -24.2106 -0.6161 -5.0234 13.9752 -7.2140 -1.9160 58.5382 -3.3515 -5.8243 5.6411 2.0619 -1.4379 -15.0182 3.2331 6.5030 -32.0800 -15.8806 11.3825 14.6184 -4.2357 3.4297 11.2297 0.0000 -0.0000 0.0000 17.1792 -41.5659 -28.6311 24.7295 -35.9263 -8.1307 -0.0000 0.0000 -27.0915 43.7310 -15.7880 -14.5895 -7.1250 0.0000 -0.0000 10.3960 8.8907 -8.8146 0.0000 -0.0000 0.0000 68.2663 42.2547 34.7838 -40.5624 48.3996 -18.8587 0.0000 -0.0000 -24.3523 -37.2754 -35.7486 23.9732 7.1250 -0.0000 -0.0000 -6.3765 -72.0253 4.1024
-17.3077 8.4807 -0.3900 356.3580 83.3582 392.0990 0.0000 0.0000 0.0000 0.2381 22.5220 -64.2901 33.0143 15.3198 131.1798 1.8521 7.3595 24.4254 0.6329 5.0904 14.1666 0.0000 0.0000 0.0000 -7.7708 -17.3110 -42.2147 -27.3277 -18.6606 111.8955 -1.1218 -8.2274 -24.5649 -0.6347 -5.0974 14.1866 -6.6022 -2.5164 58.7135 -3.5929 -6.2517 5.4631 1.7399 -1.6183 -15.3319 3.2450 6.9047 -32.2503 -16.1857 12.1088 15.2136 -4.2149 3.6701 11.5970 0.0000 -0.0000 0.0000 12.1229 -39.0987 -23.4197 28.6934 -39.7468 -10.5641 -0.0000 0.0000 -27.3136 44.5785 -14.9330 -14.2478 -7.1250 0.0000 -0.0000 11.1042 9.7542 -9.2424 0.0000 -0.0000 0.0000 69.9972 42.1921 35.8969 -42.0330 49.2293 -19.9656 0.0000 -0.0000 -23.0568 -37.6080 -37.0698 24.9075 7.1250 -0.0000 -0.0000 -6.2135 -73.5410 4.2027
-17.3311 8.4824 -0.3632 360.1210 82.7334 396.0310 0.0000 0.0000 0.0000 -0.5125 22.6769 -64.8653 33.0367 15.3009 131.2646 1.8051 6.8382 24.1287 0.6263 5.0640 14.0912 0.0000 0.0000 0.0000 -8.3397 -17.6670 -42.8313 -27.5345 -18.5806 112.5433 -1.1981 -7.6148 -24.7287 -0.6870 -5.2989 14.7631 -6.0866 -3.0614 58.5452 -3.6450 -6.6010 5.3847 1.6418 -1.7818 -15.4715 3.4283 7.2779 -32.0982 -16.7587 12.7801 15.6744 -4.3308 3.8859 11.8990 -0.0000 -0.0000 0.0000 7.0044 -35.9722 -18.5246 33.7189 -43.8754 -13.9179 -0.0000 0.0000 -27.5541 44.5679 -14.1057 -13.4991 -7.1250 0.0000 -0.0000 11.2712 10.8380 -9.1340 -0.0000 -0.0000 0.0000 70.4169 42.8230 36.7891 -42.7669 49.6264 -20.5230 0.0000 -0.0000 -22.6685 -38.4356 -38.1303 26.1054 7.1250 -0.0000 -0.0000 -7.1368 -74.9424 5.0436
-17.3235 8.4807 -0.3416 362.1720 81.9278 398.1020 0.0000 0.0000 0.0000 -1.1042 23.2110 -64.7040 33.0207 15.3144 131.2040 1.7580 6.0274 23.8582 0.5863 4.9025 13.6307 0.0000 0.0000 0.0000 -8.9130 -17.5858 -43.0200 -27.6410 -18.5383 112.8779 -1.2290 -7.3121 -24.7622 -0.7212 -5.4267 15.1298 -5.6952 -3.4627 58.2936 -3.6547 -6.8400 5.3771 1.5897 -1.9042 -15.5025 3.3769 7.5882 -31.9164 -16.9885 13.4110 16.3165 -4.2909 4.0962 12.2154 -0.0000 0.0000 0.0000 1.6134 -32.3102 -13.7392 39.8831 -48.0005 -18.3523 -0.0000 0.0000 -27.5877 45.0224 -13.7176 -13.3505 -7.1250 0.0000 -0.0000 11.6397 11.2255 -9.3511 -0.0000 0.0000 0.0000 70.9618 43.4996 37.8680 -43.0767 49.7907 -20.7593 0.0000 -0.0000 -21.9433 -38.9667 -38.7104 26.8314 7.1250 -0.0000 -0.0000 -7.8448 -75.7352 5.6774
-17.3119 8.4818 -0.3201 363.6190 81.1929 399.5490 0.0000 0.0000 0.0000 -1.5298 23.7124 -64.3949 32.9985 15.3331 131.1202 1.8084 6.0552 24.2087 0.5597 4.7919 13.3159 0.0000 0.0000 0.0000 -9.4065 -17.3986 -43.2177 -27.7161 -18.5081 113.1141 -1.2601 -7.1770 -24.9131 -0.7716 -5.6090 15.6539 -5.1290 -3.8299 58.0511 -3.6915 -6.9401 5.3818 1.3612 -1.9775 -15.5443 3.3593 7.8453 -31.8194 -16.9849 13.9488 17.2595 -4.1950 4.2683 12.6329 0.0000 0.0000 0.0000 -3.7154 -29.0788 -9.3786 46.4342 -51.4520 -23.3551 -0.0000 0.0000 -26.2593 46.3848 -13.8055 -14.0605 -7.1250 0.0000 -0.0000 12.4773 10.7266 -10.1879 0.0000 0.0000 0.0000 71.3859 43.9910 38.6069 -43.3110 49.9137 -20.9384 0.0000 -0.0000 -21.1162 -39.3203 -38.7707 27.1539 7.1250 -0.0000 -0.0000 -8.5651 -75.9204 6.2337
-17.2957 8.4851 -0.2983 366.4470 80.6769 402.4930 0.0000 0.0000 0.0000 -2.1408 23.6149 -64.3416 32.9908 15.3396 131.0909 1.8179 6.5087 24.2387 0.6136 5.0133 13.9464 0.0000 0.0000 0.0000 -9.9964 -17.6367 -43.4347 -27.7635 -18.4888 113.2635 -1.2981 -7.0367 -25.1138 -0.7760 -5.6245 15.6986 -4.3570 -4.2971 57.7383 -3.7343 -7.0375 5.3586 1.0358 -2.0567 -15.6356 4.0583 8.1380 -31.2867 -17.6646 14.3165 17.5997 -4.5055 4.3987 12.8527 -0.0000 0.0000 0.0000 -9.0546 -26.9332 -5.6316 52.2196 -53.8524 -27.9568 -0.0000 0.0000 -23.3764 47.4302 -14.3507 -15.1003 -7.1250 0.0000 -0.0000 13.0042 9.6783 -10.9257 -0.0000 0.0000 0.0000 71.4374 44.2521 38.9806 -43.6028 50.0653 -21.1619 0.0000 -0.0000 -20.4792 -40.0114 -38.2699 27.4708 7.1250 -0.0000 -0.0000 -10.3704 -75.6279 7.4891
